<svg
  version="1.1"
  id="kits_logo"
  xmlns="http://www.w3.org/2000/svg"
  xmlns:xlink="http://www.w3.org/1999/xlink"
  x="0px"
  y="0px"
  width="111px"
  height="92.093px"
  viewBox="0 0 111 92.093"
  enable-background="new 0 0 111 92.093"
  xml:space="preserve"
>
  <g>
    <g
      id="g10"
      transform="matrix(1.0787049,0,0,1.0787049,-4.232838,-13.107343)"
    >
      <path
        id="path2"
        fill="#00A3D3"
        d="M104.53,43.314L86.451,61.395l-0.517,0.23L63.038,71.906l10.518-23.41L78.1,43.95
                    l15.144-15.144c0.426,0.393,0.851,0.797,1.267,1.21L79.378,45.143l6.273-0.523l-2.615,6.632l-0.427,1.086l0.789-0.313l6.923-2.731
                    l-0.52,6.274l13.837-13.836C103.947,42.25,104.243,42.778,104.53,43.314z M87.888,57.481l0.459-5.528l-4.278,1.686l-4.56,1.801
                    l2.451-6.221l1.037-2.621l-2.588,0.214l-2.942,0.246l-2.447,2.445l-4.373,9.729l5.065,5.064l9.728-4.369l0.245-0.246
                    L87.888,57.481z"
      ></path>
      <path
        id="path4"
        fill="#00A3D3"
        d="M86.073,64.373c0,0.062,0,0.131,0,0.196c0,16.918-13.719,30.638-30.638,30.638
                    c-16.922,0-30.638-13.717-30.638-30.638v-0.067l27.859,12.511L39.179,47.015l-4.751-4.751c2.657-2.504,5.756-4.534,9.183-5.967
                    v9.974l11.678,30.743l11.686-30.743V36.178c3.467,1.413,6.622,3.442,9.32,5.948l-4.887,4.889L57.931,77.014L86.073,64.373z"
      ></path>
      <path
        id="path6"
        fill="#00A3D3"
        d="M64.415,14.725v31.077l-9.126,23.989l-9.114-23.989v-31.03c0.575-0.098,1.16-0.186,1.75-0.262
                    v24.805l4.065-4.807l3.299,7.605l3.308-7.605l4.066,4.809V14.469C63.251,14.546,63.832,14.63,64.415,14.725z M62.661,45.481V42.02
                    l-3.586-4.234L55.289,46.5l-3.784-8.714l-3.58,4.234v3.461l3.785,9.967h7.162L62.661,45.481z"
      ></path>
      <path
        id="path8"
        fill="#00A3D3"
        d="M37.028,48.496l10.519,23.41L24.923,61.743l-0.788-0.347L6.242,43.498
                    c0.284-0.532,0.578-1.064,0.884-1.589l13.662,13.659l-0.526-6.274l7.167,2.829l0.549,0.215l-0.295-0.758l-2.75-6.958l6.279,0.522
                    L16.216,30.151c0.415-0.407,0.834-0.814,1.26-1.214l15.163,15.161L37.028,48.496z M39.933,59.235l-4.364-9.731l-2.446-2.444
                    l-2.678-0.225l-2.849-0.237l1.145,2.914l2.342,5.928l-4.317-1.701l-4.524-1.786l0.459,5.529l2.443,2.446l9.734,4.37L39.933,59.235
                    z"
      ></path>
    </g>
  </g>
</svg>
